<?xml version="1.0" standalone="no"?><!DOCTYPE svg PUBLIC "-//W3C//DTD SVG 1.1//EN" "http://www.w3.org/Graphics/SVG/1.1/DTD/svg11.dtd"><svg class="icon" width="200px" height="200.00px" viewBox="0 0 1024 1024" version="1.1" xmlns="http://www.w3.org/2000/svg"><path d="M841.664 457.664 566.08 458.24l2.08-275.584c0.256-30.304-24.128-54.816-54.432-54.752-30.304 0.064-55.072 24.704-55.296 54.976l-2.08 275.584-273.152 0.576c-30.304 0.064-55.072 24.672-55.296 54.976-0.224 30.304 24.16 54.816 54.464 54.752l273.152-0.576-2.08 273.152c-0.224 30.304 24.16 54.816 54.464 54.752 30.304-0.064 55.072-24.672 55.296-54.976l2.08-273.152 275.584-0.576c30.304-0.064 55.072-24.672 55.296-54.976C896.352 482.112 871.968 457.6 841.664 457.664z" fill="#ffffff" /></svg>