<?xml version="1.0" standalone="no"?><!DOCTYPE svg PUBLIC "-//W3C//DTD SVG 1.1//EN" "http://www.w3.org/Graphics/SVG/1.1/DTD/svg11.dtd"><svg class="icon" width="200px" height="200.00px" viewBox="0 0 1024 1024" version="1.1" xmlns="http://www.w3.org/2000/svg"><path fill="#555555" d="M921.59744 127.95904 742.39744 127.95904C648.35072 127.95904 569.19808 155.38688 524.8 198.3232 480.39936 155.38688 401.24928 127.95904 307.2 127.95904L127.99744 127.95904C99.776 127.95904 76.8 150.92224 76.8 179.1616L76.8 767.95904C76.8 796.2112 99.776 819.15904 127.99744 819.15904L307.2 819.15904C375.4624 819.15904 449.6128 848.4864 476.21376 876.24704 488.26112 888.83712 504.94976 895.9616 522.37568 895.9616L527.48544 895.9616C544.80128 895.9616 561.34912 888.8704 573.28384 876.33408 599.78752 848.54784 673.98656 819.15904 742.39744 819.15904L921.59744 819.15904C949.824 819.15904 972.8 796.2112 972.8 767.95904L972.8 179.1616C972.8 150.92224 949.824 127.95904 921.59744 127.95904ZM307.2 742.3616 153.6 742.3616 153.6 204.7616 307.2 204.7616C416.59904 204.7616 486.4 250.24768 486.4 281.5616L486.4 784.3328C440.89856 758.10816 378.34752 742.3616 307.2 742.3616ZM896 742.3616 742.39744 742.3616C671.24992 742.3616 608.69888 758.10816 563.2 784.3328L563.2 281.5616C563.2 250.24768 632.9984 204.7616 742.39744 204.7616L896 204.7616 896 742.3616Z" /></svg>