<?xml version="1.0" standalone="no"?><!DOCTYPE svg PUBLIC "-//W3C//DTD SVG 1.1//EN" "http://www.w3.org/Graphics/SVG/1.1/DTD/svg11.dtd"><svg class="icon" width="200px" height="200.00px" viewBox="0 0 1024 1024" version="1.1" xmlns="http://www.w3.org/2000/svg"><path fill="#555555" d="M621.674496 475.46368q0-14.856192-10.856448-25.71264t-25.71264-10.856448l-146.276352 0q-14.856192 0-25.71264 10.856448t-10.856448 25.71264 10.856448 25.71264 25.71264 10.856448l146.276352 0q14.856192 0 25.71264-10.856448t10.856448-25.71264zm329.121792-109.707264l0 548.53632q0 14.856192-10.856448 25.71264t-25.71264 10.856448l-804.519936 0q-14.856192 0-25.71264-10.856448t-10.856448-25.71264l0-548.53632q0-14.856192 10.856448-25.71264t25.71264-10.856448l804.519936 0q14.856192 0 25.71264 10.856448t10.856448 25.71264zm36.569088-255.983616l0 146.276352q0 14.856192-10.856448 25.71264t-25.71264 10.856448l-877.658112 0q-14.856192 0-25.71264-10.856448t-10.856448-25.71264l0-146.276352q0-14.856192 10.856448-25.71264t25.71264-10.856448l877.658112 0q14.856192 0 25.71264 10.856448t10.856448 25.71264z" /></svg>