<?xml version="1.0" standalone="no"?><!DOCTYPE svg PUBLIC "-//W3C//DTD SVG 1.1//EN" "http://www.w3.org/Graphics/SVG/1.1/DTD/svg11.dtd"><svg class="icon" width="200px" height="200.00px" viewBox="0 0 1024 1024" version="1.1" xmlns="http://www.w3.org/2000/svg"><path fill="#555555" d="M1013.76 980.48c0 23.04-20.48 42.24-47.36 42.24h-908.8c-25.6 0-47.36-19.2-47.36-42.24 0 0 0-154.88 125.44-211.2 79.36-35.84 48.64-6.4 145.92-43.52 97.28-35.84 120.32-48.64 120.32-48.64l-5.12-64s-108.8-28.16-125.44-136.96c-33.28 7.68-44.8-33.28-47.36-60.16-1.28-25.6-19.2-104.96 21.76-98.56-8.96-53.76-14.08-101.12-11.52-126.72 5.12-43.52-6.4-48.64 37.12-84.48 10.24-8.96-8.96-48.64-2.56-61.44 11.52-24.32 99.84-12.8 113.92-19.2C418.56 11.52 458.24 2.56 504.32 0c184.32 6.4 258.56 99.84 268.8 189.44 2.56 25.6-3.84 74.24-11.52 126.72 40.96-7.68 23.04 72.96 21.76 98.56-1.28 26.88-12.8 67.84-47.36 60.16C716.8 584.96 627.2 613.12 627.2 613.12l-5.12 64s23.04 11.52 120.32 48.64c97.28 35.84 66.56 8.96 145.92 44.8 125.44 55.04 125.44 209.92 125.44 209.92z" /></svg>